<?xml version="1.0" encoding="UTF-8"?>
<svg xmlns="http://www.w3.org/2000/svg" viewBox="0 0 1680 700" font-family="sans-serif">
  <rect width="1680" height="700" fill="white"/>
  <text x="695.0" y="30" text-anchor="middle" font-size="18" font-weight="bold">Latência e throughput por segundo — rinha official load (ramp 0→900 RPS em 120s)</text>
  <text x="20.0" y="345.0" text-anchor="middle" font-size="13" fill="#d62728" transform="rotate(-90 20.0 345.0)">latência (ms)</text>
  <text x="1370.0" y="345.0" text-anchor="middle" font-size="13" fill="#2ca02c" transform="rotate(90 1370.0 345.0)">requests/s</text>
  <text x="695.0" y="685.0" text-anchor="middle" font-size="13" fill="#333">tempo decorrido (s)</text>
  <line x1="80.0" y1="50" x2="80.0" y2="640" stroke="#e8e8e8" stroke-width="1"/><text x="80.0" y="660.0" text-anchor="middle" font-size="12" fill="#555">0</text><line x1="181.7" y1="50" x2="181.7" y2="640" stroke="#e8e8e8" stroke-width="1"/><text x="181.7" y="660.0" text-anchor="middle" font-size="12" fill="#555">10</text><line x1="283.3" y1="50" x2="283.3" y2="640" stroke="#e8e8e8" stroke-width="1"/><text x="283.3" y="660.0" text-anchor="middle" font-size="12" fill="#555">20</text><line x1="385.0" y1="50" x2="385.0" y2="640" stroke="#e8e8e8" stroke-width="1"/><text x="385.0" y="660.0" text-anchor="middle" font-size="12" fill="#555">30</text><line x1="486.6" y1="50" x2="486.6" y2="640" stroke="#e8e8e8" stroke-width="1"/><text x="486.6" y="660.0" text-anchor="middle" font-size="12" fill="#555">40</text><line x1="588.3" y1="50" x2="588.3" y2="640" stroke="#e8e8e8" stroke-width="1"/><text x="588.3" y="660.0" text-anchor="middle" font-size="12" fill="#555">50</text><line x1="689.9" y1="50" x2="689.9" y2="640" stroke="#e8e8e8" stroke-width="1"/><text x="689.9" y="660.0" text-anchor="middle" font-size="12" fill="#555">60</text><line x1="791.6" y1="50" x2="791.6" y2="640" stroke="#e8e8e8" stroke-width="1"/><text x="791.6" y="660.0" text-anchor="middle" font-size="12" fill="#555">70</text><line x1="893.2" y1="50" x2="893.2" y2="640" stroke="#e8e8e8" stroke-width="1"/><text x="893.2" y="660.0" text-anchor="middle" font-size="12" fill="#555">80</text><line x1="994.9" y1="50" x2="994.9" y2="640" stroke="#e8e8e8" stroke-width="1"/><text x="994.9" y="660.0" text-anchor="middle" font-size="12" fill="#555">90</text><line x1="1096.5" y1="50" x2="1096.5" y2="640" stroke="#e8e8e8" stroke-width="1"/><text x="1096.5" y="660.0" text-anchor="middle" font-size="12" fill="#555">100</text><line x1="1198.2" y1="50" x2="1198.2" y2="640" stroke="#e8e8e8" stroke-width="1"/><text x="1198.2" y="660.0" text-anchor="middle" font-size="12" fill="#555">110</text><line x1="1299.8" y1="50" x2="1299.8" y2="640" stroke="#e8e8e8" stroke-width="1"/><text x="1299.8" y="660.0" text-anchor="middle" font-size="12" fill="#555">120</text>
  <line x1="80" y1="640.0" x2="1310.0" y2="640.0" stroke="#e8e8e8" stroke-width="1"/><text x="72.0" y="644.0" text-anchor="end" font-size="12" fill="#d62728">0.00</text><line x1="80" y1="541.7" x2="1310.0" y2="541.7" stroke="#e8e8e8" stroke-width="1"/><text x="72.0" y="545.7" text-anchor="end" font-size="12" fill="#d62728">0.69</text><line x1="80" y1="443.3" x2="1310.0" y2="443.3" stroke="#e8e8e8" stroke-width="1"/><text x="72.0" y="447.3" text-anchor="end" font-size="12" fill="#d62728">1.38</text><line x1="80" y1="345.0" x2="1310.0" y2="345.0" stroke="#e8e8e8" stroke-width="1"/><text x="72.0" y="349.0" text-anchor="end" font-size="12" fill="#d62728">2.07</text><line x1="80" y1="246.7" x2="1310.0" y2="246.7" stroke="#e8e8e8" stroke-width="1"/><text x="72.0" y="250.7" text-anchor="end" font-size="12" fill="#d62728">2.76</text><line x1="80" y1="148.3" x2="1310.0" y2="148.3" stroke="#e8e8e8" stroke-width="1"/><text x="72.0" y="152.3" text-anchor="end" font-size="12" fill="#d62728">3.44</text><line x1="80" y1="50.0" x2="1310.0" y2="50.0" stroke="#e8e8e8" stroke-width="1"/><text x="72.0" y="54.0" text-anchor="end" font-size="12" fill="#d62728">4.13</text>
  <text x="1318.0" y="644.0" text-anchor="start" font-size="12" fill="#2ca02c">0</text><text x="1318.0" y="545.7" text-anchor="start" font-size="12" fill="#2ca02c">164</text><text x="1318.0" y="447.3" text-anchor="start" font-size="12" fill="#2ca02c">329</text><text x="1318.0" y="349.0" text-anchor="start" font-size="12" fill="#2ca02c">493</text><text x="1318.0" y="250.7" text-anchor="start" font-size="12" fill="#2ca02c">657</text><text x="1318.0" y="152.3" text-anchor="start" font-size="12" fill="#2ca02c">821</text><text x="1318.0" y="54.0" text-anchor="start" font-size="12" fill="#2ca02c">986</text>
  <rect x="80" y="50" width="1230" height="590" fill="none" stroke="#888" stroke-width="1"/>
  <path d="M80.0 637.6 L90.2 632.8 L100.3 628.0 L110.5 623.8 L120.7 619.0 L130.8 614.9 L141.0 610.1 L151.2 605.9 L161.3 601.1 L171.5 596.9 L181.7 592.1 L191.8 587.9 L202.0 583.7 L212.1 578.9 L222.3 574.2 L232.5 570.0 L242.6 565.2 L252.8 561.0 L263.0 556.8 L273.1 551.4 L283.3 547.8 L293.5 543.0 L303.6 538.2 L313.8 534.0 L324.0 529.9 L334.1 525.1 L344.3 520.3 L354.5 516.1 L364.6 511.9 L374.8 507.1 L385.0 502.3 L395.1 498.1 L405.3 493.9 L415.5 489.1 L425.6 484.4 L435.8 480.2 L446.0 476.0 L456.1 471.2 L466.3 467.0 L476.4 462.2 L486.6 457.4 L496.8 453.2 L506.9 449.0 L517.1 444.3 L527.3 440.1 L537.4 435.3 L547.6 431.1 L557.8 426.3 L567.9 421.5 L578.1 417.9 L588.3 412.5 L598.4 408.9 L608.6 403.5 L618.8 399.4 L628.9 395.2 L639.1 390.4 L649.3 386.2 L659.4 381.4 L669.6 377.2 L679.8 372.4 L689.9 368.2 L700.1 363.4 L710.2 359.2 L720.4 354.5 L730.6 350.3 L740.7 346.1 L750.9 340.7 L761.1 337.1 L771.2 331.7 L781.4 328.1 L791.6 323.3 L801.7 318.5 L811.9 314.4 L822.1 309.6 L832.2 305.4 L842.4 301.2 L852.6 295.8 L862.7 292.2 L872.9 287.4 L883.1 282.6 L893.2 278.4 L903.4 273.6 L913.6 270.1 L923.7 264.7 L933.9 260.5 L944.0 255.7 L954.2 251.5 L964.4 247.3 L974.5 242.5 L984.7 237.7 L994.9 233.5 L1005.0 229.3 L1015.2 224.6 L1025.4 219.8 L1035.5 215.6 L1045.7 211.4 L1055.9 206.6 L1066.0 202.4 L1076.2 197.0 L1086.4 193.4 L1096.5 189.2 L1106.7 183.9 L1116.9 179.7 L1127.0 175.5 L1137.2 170.7 L1147.4 165.9 L1157.5 162.3 L1167.7 156.9 L1177.9 153.3 L1188.0 147.9 L1198.2 143.7 L1208.3 139.6 L1218.5 134.8 L1228.7 130.6 L1238.8 125.8 L1249.0 121.6 L1259.2 116.8 L1269.3 112.6 L1279.5 107.8 L1289.7 103.6 L1299.8 639.4 " stroke="#2ca02c" stroke-width="1.5" fill="none" opacity="0.75"/>
  <path d="M80.0 589.7 L90.2 614.9 L100.3 614.4 L110.5 613.7 L120.7 606.5 L130.8 604.0 L141.0 602.2 L151.2 603.3 L161.3 602.6 L171.5 593.6 L181.7 502.7 L191.8 586.5 L202.0 598.0 L212.1 601.7 L222.3 603.9 L232.5 602.5 L242.6 600.5 L252.8 603.6 L263.0 603.9 L273.1 602.5 L283.3 607.4 L293.5 614.2 L303.6 608.7 L313.8 605.5 L324.0 606.3 L334.1 604.9 L344.3 605.5 L354.5 628.6 L364.6 628.9 L374.8 627.7 L385.0 627.9 L395.1 627.9 L405.3 623.6 L415.5 618.9 L425.6 622.4 L435.8 619.7 L446.0 617.0 L456.1 623.7 L466.3 622.0 L476.4 617.7 L486.6 621.7 L496.8 620.3 L506.9 622.7 L517.1 620.9 L527.3 620.4 L537.4 618.7 L547.6 621.6 L557.8 622.7 L567.9 623.3 L578.1 625.4 L588.3 622.9 L598.4 620.3 L608.6 629.6 L618.8 629.3 L628.9 629.6 L639.1 630.1 L649.3 630.1 L659.4 619.9 L669.6 625.6 L679.8 623.4 L689.9 625.4 L700.1 626.7 L710.2 623.2 L720.4 630.3 L730.6 630.6 L740.7 630.6 L750.9 629.4 L761.1 628.3 L771.2 630.6 L781.4 631.1 L791.6 627.2 L801.7 626.2 L811.9 630.6 L822.1 626.6 L832.2 630.9 L842.4 630.1 L852.6 626.4 L862.7 624.6 L872.9 627.4 L883.1 622.4 L893.2 631.6 L903.4 631.0 L913.6 631.3 L923.7 626.2 L933.9 631.3 L944.0 630.7 L954.2 631.1 L964.4 630.4 L974.5 631.0 L984.7 632.3 L994.9 628.6 L1005.0 632.1 L1015.2 632.3 L1025.4 632.6 L1035.5 628.6 L1045.7 632.4 L1055.9 630.4 L1066.0 631.3 L1076.2 632.3 L1086.4 632.4 L1096.5 623.4 L1106.7 631.7 L1116.9 632.0 L1127.0 631.1 L1137.2 632.0 L1147.4 631.1 L1157.5 631.6 L1167.7 631.1 L1177.9 632.3 L1188.0 628.2 L1198.2 632.3 L1208.3 632.4 L1218.5 626.9 L1228.7 628.6 L1238.8 629.7 L1249.0 625.6 L1259.2 629.4 L1269.3 626.0 L1279.5 631.4 L1289.7 629.3 L1299.8 634.0 " stroke="#1f77b4" stroke-width="1.5" fill="none" opacity="0.85"/>
  <path d="M80.0 589.3 L90.2 614.9 L100.3 614.2 L110.5 613.2 L120.7 602.7 L130.8 602.9 L141.0 600.0 L151.2 600.9 L161.3 602.6 L171.5 590.5 L181.7 170.0 L191.8 583.9 L202.0 597.6 L212.1 601.0 L222.3 601.3 L232.5 599.7 L242.6 599.3 L252.8 601.6 L263.0 601.0 L273.1 597.3 L283.3 604.3 L293.5 605.2 L303.6 599.5 L313.8 599.9 L324.0 605.5 L334.1 604.0 L344.3 604.5 L354.5 628.0 L364.6 627.4 L374.8 605.6 L385.0 626.9 L395.1 626.9 L405.3 606.6 L415.5 603.9 L425.6 616.0 L435.8 614.3 L446.0 615.3 L456.1 612.7 L466.3 620.3 L476.4 599.6 L486.6 620.4 L496.8 607.2 L506.9 618.0 L517.1 585.7 L527.3 618.9 L537.4 604.0 L547.6 612.0 L557.8 614.7 L567.9 618.7 L578.1 617.2 L588.3 618.7 L598.4 605.0 L608.6 627.7 L618.8 627.2 L628.9 628.9 L639.1 628.7 L649.3 629.1 L659.4 269.4 L669.6 621.9 L679.8 610.7 L689.9 620.0 L700.1 624.4 L710.2 388.6 L720.4 628.4 L730.6 629.9 L740.7 629.4 L750.9 627.3 L761.1 296.8 L771.2 628.2 L781.4 630.3 L791.6 602.2 L801.7 103.6 L811.9 626.9 L822.1 608.3 L832.2 629.1 L842.4 184.7 L852.6 620.0 L862.7 606.2 L872.9 620.6 L883.1 239.7 L893.2 623.7 L903.4 619.4 L913.6 624.7 L923.7 594.0 L933.9 628.6 L944.0 625.2 L954.2 627.6 L964.4 598.7 L974.5 626.6 L984.7 628.4 L994.9 382.9 L1005.0 629.7 L1015.2 629.3 L1025.4 629.7 L1035.5 345.9 L1045.7 631.4 L1055.9 625.4 L1066.0 409.3 L1076.2 629.0 L1086.4 628.9 L1096.5 541.8 L1106.7 625.9 L1116.9 627.3 L1127.0 580.2 L1137.2 628.0 L1147.4 627.9 L1157.5 238.7 L1167.7 629.1 L1177.9 628.9 L1188.0 274.7 L1198.2 631.1 L1208.3 628.3 L1218.5 295.1 L1228.7 614.0 L1238.8 625.7 L1249.0 356.6 L1259.2 622.7 L1269.3 212.0 L1279.5 627.2 L1289.7 625.3 L1299.8 634.0 " stroke="#d62728" stroke-width="1.5" fill="none"/>
  
      <g font-size="13">
        <rect x="92" y="62" width="160" height="80" fill="white" stroke="#ccc"/>
        <line x1="104" y1="82" x2="134" y2="82" stroke="#d62728" stroke-width="2"/>
        <text x="140" y="86" fill="#333">max latência (ms)</text>
        <line x1="104" y1="106" x2="134" y2="106" stroke="#1f77b4" stroke-width="2"/>
        <text x="140" y="110" fill="#333">p99 latência (ms)</text>
        <line x1="104" y1="130" x2="134" y2="130" stroke="#2ca02c" stroke-width="2"/>
        <text x="140" y="134" fill="#333">requests/s</text>
      </g>
  
      <g font-size="13">
        <rect x="1410" y="50" width="260" height="230" fill="white" stroke="#ccc"/>
        <text x="1540" y="70" text-anchor="middle" font-weight="bold" fill="#333">http_req_duration (global)</text>
        <text x="1422" y="86" fill="#333">min</text><text x="1658" y="86" text-anchor="end" fill="#333" font-family="monospace">0.018 ms</text>
        <text x="1422" y="104" fill="#333">avg</text><text x="1658" y="104" text-anchor="end" fill="#333" font-family="monospace">0.039 ms</text>
        <text x="1422" y="122" fill="#333">p50 (med)</text><text x="1658" y="122" text-anchor="end" fill="#333" font-family="monospace">0.032 ms</text>
        <text x="1422" y="140" fill="#333">p90</text><text x="1658" y="140" text-anchor="end" fill="#333" font-family="monospace">0.057 ms</text>
        <text x="1422" y="158" fill="#333">p99</text><text x="1658" y="158" text-anchor="end" fill="#333" font-family="monospace">0.121 ms</text>
        <text x="1422" y="176" fill="#333">p99.9</text><text x="1658" y="176" text-anchor="end" fill="#333" font-family="monospace">0.278 ms</text>
        <text x="1422" y="194" fill="#333">max</text><text x="1658" y="194" text-anchor="end" fill="#333" font-family="monospace">3.757 ms</text>
        <line x1="1418" y1="204" x2="1662" y2="204" stroke="#ddd"/>
        <text x="1422" y="219.20000000000002" fill="#333">total reqs</text><text x="1658" y="219.20000000000002" text-anchor="end" fill="#333" font-family="monospace">54059</text>
        <text x="1422" y="237.20000000000002" fill="#333">erros</text><text x="1658" y="237.20000000000002" text-anchor="end" fill="#333" font-family="monospace">0</text>
        <text x="1422" y="255.20000000000002" fill="#333">score</text><text x="1658" y="255.20000000000002" text-anchor="end" fill="#333" font-family="monospace">6000</text>
      </g>
</svg>
